<svg width="24" height="24" viewBox="0 0 24 24" fill="none" xmlns="http://www.w3.org/2000/svg">
<path d="M14.6805 3.0271L14.6806 3.02718L14.6731 3.03466L6.02973 11.678L6.02974 11.678L6.02742 11.6803L6.02084 11.6868C6.02055 11.6871 6.02025 11.6874 6.01996 11.6877C5.84837 11.8602 5.84821 12.1389 6.01946 12.3116L6.0307 12.3226L6.03072 12.3226L6.03414 12.326L14.6702 20.9621L14.6703 20.9619L14.6791 20.9712L14.6873 20.9797C14.6873 20.9797 14.6873 20.9797 14.6873 20.9797C14.8603 21.1526 15.1406 21.1526 15.3136 20.9797C15.4866 20.8067 15.4865 20.5262 15.314 20.3534C15.314 20.3534 15.3139 20.3534 15.3139 20.3533L7.31392 12.3534L6.96037 11.9998L7.31391 11.6463L15.3136 3.6463C15.3136 3.64629 15.3136 3.64628 15.3136 3.64627C15.4865 3.47334 15.4865 3.19301 15.3136 3.02011C15.1406 2.84718 14.8603 2.84718 14.6873 3.02011L14.6805 3.0271Z" fill="white" stroke="#EC5CBB"/>
</svg>
