<svg width="24" height="24" viewBox="0 0 24 24" fill="none" xmlns="http://www.w3.org/2000/svg">
<path d="M9.31952 3.0271L9.31944 3.02718L9.32692 3.03466L17.9703 11.678L17.9703 11.678L17.9726 11.6803L17.9792 11.6868C17.9795 11.6871 17.9797 11.6874 17.98 11.6877C18.1516 11.8602 18.1518 12.1389 17.9805 12.3116L17.9693 12.3226L17.9693 12.3226L17.9659 12.326L9.32985 20.9621L9.32973 20.9619L9.32089 20.9712L9.31267 20.9797C9.31267 20.9797 9.31267 20.9797 9.31267 20.9797C9.13975 21.1526 8.85937 21.1526 8.68645 20.9797C8.51344 20.8067 8.51345 20.5262 8.68601 20.3534C8.68605 20.3534 8.68608 20.3534 8.68612 20.3533L16.6861 12.3534L17.0396 11.9998L16.6861 11.6463L8.68642 3.6463C8.68641 3.64629 8.6864 3.64628 8.68639 3.64627C8.51352 3.47334 8.51354 3.19301 8.68645 3.02011C8.85938 2.84718 9.13975 2.84718 9.31267 3.02011L9.31952 3.0271Z" fill="white" stroke="#EC5CBB"/>
</svg>
