<svg width="30" height="30" viewBox="0 0 30 30" fill="none" xmlns="http://www.w3.org/2000/svg">
<rect width="30" height="30" rx="15" fill="#F2F5FA"/>
<path d="M16.46 13.54C15.8766 12.9567 15.0854 12.6291 14.2605 12.6291C13.4355 12.6291 12.6443 12.9567 12.0609 13.54L8.94979 16.6511C8.65264 16.9381 8.41563 17.2814 8.25258 17.661C8.08953 18.0405 8.00371 18.4488 8.00012 18.8619C7.99653 19.2749 8.07524 19.6846 8.23167 20.067C8.3881 20.4493 8.61911 20.7967 8.91122 21.0888C9.20333 21.3809 9.5507 21.6119 9.93304 21.7683C10.3154 21.9248 10.7251 22.0035 11.1381 21.9999C11.5512 21.9963 11.9595 21.9105 12.339 21.7474C12.7186 21.5844 13.0619 21.3474 13.3489 21.0502L14.206 20.1939M13.6165 16.3835C14.1999 16.9668 14.9911 17.2944 15.816 17.2944C16.641 17.2944 17.4321 16.9668 18.0156 16.3835L21.1267 13.2724C21.6934 12.6857 22.007 11.8998 21.9999 11.0841C21.9928 10.2684 21.6656 9.48805 21.0888 8.91122C20.512 8.3344 19.7316 8.00721 18.9159 8.00012C18.1002 7.99303 17.3143 8.30661 16.7276 8.87333L15.872 9.72888" stroke="#333333" stroke-linecap="round" stroke-linejoin="round"/>
</svg>
