<svg width="28" height="28" viewBox="0 0 28 28" fill="none" xmlns="http://www.w3.org/2000/svg">
<path d="M11.3333 10.6667V8V10.6667ZM16.6667 10.6667V8V10.6667ZM10.6667 13.3333H17.3333H10.6667ZM9.33333 20H18.6667C19.0203 20 19.3594 19.8595 19.6095 19.6095C19.8595 19.3594 20 19.0203 20 18.6667V10.6667C20 10.313 19.8595 9.97391 19.6095 9.72386C19.3594 9.47381 19.0203 9.33333 18.6667 9.33333H9.33333C8.97971 9.33333 8.64057 9.47381 8.39052 9.72386C8.14048 9.97391 8 10.313 8 10.6667V18.6667C8 19.0203 8.14048 19.3594 8.39052 19.6095C8.64057 19.8595 8.97971 20 9.33333 20Z" stroke="#96999C" stroke-linecap="round" stroke-linejoin="round"/>
<rect x="0.5" y="0.5" width="27" height="27" rx="13.5" stroke="#96999C" stroke-dasharray="2 2"/>
</svg>
