<svg width="11" height="11" viewBox="0 0 11 11" fill="none" xmlns="http://www.w3.org/2000/svg">
<path d="M2.29168 5.49999H2.29626H2.29168ZM5.50001 5.49999H5.50459H5.50001ZM8.70834 5.49999H8.71293H8.70834ZM2.75001 5.49999C2.75001 5.62155 2.70172 5.73813 2.61577 5.82408C2.52981 5.91003 2.41323 5.95832 2.29168 5.95832C2.17012 5.95832 2.05354 5.91003 1.96759 5.82408C1.88163 5.73813 1.83334 5.62155 1.83334 5.49999C1.83334 5.37843 1.88163 5.26185 1.96759 5.1759C2.05354 5.08995 2.17012 5.04166 2.29168 5.04166C2.41323 5.04166 2.52981 5.08995 2.61577 5.1759C2.70172 5.26185 2.75001 5.37843 2.75001 5.49999V5.49999ZM5.95834 5.49999C5.95834 5.62155 5.91005 5.73813 5.8241 5.82408C5.73815 5.91003 5.62157 5.95832 5.50001 5.95832C5.37845 5.95832 5.26187 5.91003 5.17592 5.82408C5.08997 5.73813 5.04168 5.62155 5.04168 5.49999C5.04168 5.37843 5.08997 5.26185 5.17592 5.1759C5.26187 5.08995 5.37845 5.04166 5.50001 5.04166C5.62157 5.04166 5.73815 5.08995 5.8241 5.1759C5.91005 5.26185 5.95834 5.37843 5.95834 5.49999V5.49999ZM9.16668 5.49999C9.16668 5.62155 9.11839 5.73813 9.03243 5.82408C8.94648 5.91003 8.8299 5.95832 8.70834 5.95832C8.58679 5.95832 8.47021 5.91003 8.38425 5.82408C8.2983 5.73813 8.25001 5.62155 8.25001 5.49999C8.25001 5.37843 8.2983 5.26185 8.38425 5.1759C8.47021 5.08995 8.58679 5.04166 8.70834 5.04166C8.8299 5.04166 8.94648 5.08995 9.03243 5.1759C9.11839 5.26185 9.16668 5.37843 9.16668 5.49999V5.49999Z" stroke="#333333" stroke-linecap="round" stroke-linejoin="round"/>
</svg>
