<svg width="14" height="14" viewBox="0 0 14 14" fill="none" xmlns="http://www.w3.org/2000/svg">
<path d="M2 2.55556C2 2.40821 2.05853 2.26691 2.16272 2.16272C2.26691 2.05853 2.40821 2 2.55556 2H11.4444C11.5918 2 11.7331 2.05853 11.8373 2.16272C11.9415 2.26691 12 2.40821 12 2.55556V3.99222C12 4.13955 11.9414 4.28084 11.8372 4.385L8.27389 7.94833C8.1697 8.0525 8.11114 8.19378 8.11111 8.34111V9.77778L5.88889 12V8.34111C5.88886 8.19378 5.83031 8.0525 5.72611 7.94833L2.16278 4.385C2.05858 4.28084 2.00003 4.13955 2 3.99222V2.55556Z" stroke="#808080" stroke-linecap="round" stroke-linejoin="round"/>
</svg>
