<svg width="30" height="30" viewBox="0 0 30 30" fill="none" xmlns="http://www.w3.org/2000/svg">
<rect x="0.5" y="0.5" width="29" height="29" rx="14.5" fill="white"/>
<path d="M17.625 19.4444H12.375M17.625 19.4444H22L20.7706 18.1956C20.6055 18.0278 20.4746 17.8287 20.3853 17.6095C20.2959 17.3903 20.25 17.1554 20.25 16.9182V14.1111C20.2501 13.0079 19.9136 11.9319 19.2868 11.031C18.66 10.1302 17.7737 9.44886 16.75 9.08089V8.77778C16.75 8.30628 16.5656 7.8541 16.2374 7.5207C15.9092 7.1873 15.4641 7 15 7C14.5359 7 14.0908 7.1873 13.7626 7.5207C13.4344 7.8541 13.25 8.30628 13.25 8.77778V9.08089C11.2113 9.81333 9.75 11.7893 9.75 14.1111V16.9191C9.75 17.3973 9.56275 17.8569 9.22938 18.1956L8 19.4444H12.375H17.625ZM17.625 19.4444V20.3333C17.625 21.0406 17.3484 21.7189 16.8562 22.219C16.3639 22.719 15.6962 23 15 23C14.3038 23 13.6361 22.719 13.1438 22.219C12.6516 21.7189 12.375 21.0406 12.375 20.3333V19.4444H17.625Z" stroke="#333333" stroke-linecap="round" stroke-linejoin="round"/>
<rect x="0.5" y="0.5" width="29" height="29" rx="14.5" stroke="white"/>
<circle cx="5.5" cy="5.5" r="5.5" fill="#FF5722"/>
</svg>
