<svg width="24" height="24" viewBox="0 0 24 24" fill="none" xmlns="http://www.w3.org/2000/svg">
<rect width="24" height="24" rx="12" fill="#4F6EA3"/>
<path d="M14.752 11.168L11.555 9.03601C11.4043 8.93544 11.229 8.87771 11.048 8.86901C10.867 8.86031 10.687 8.90096 10.5274 8.98661C10.3677 9.07226 10.2342 9.19969 10.1414 9.35529C10.0485 9.51088 9.99961 9.6888 10 9.87001V14.133C9.99998 14.3141 10.0491 14.4917 10.1421 14.647C10.2352 14.8023 10.3686 14.9295 10.5282 15.0149C10.6879 15.1003 10.8677 15.1408 11.0485 15.132C11.2293 15.1232 11.4044 15.0655 11.555 14.965L14.752 12.833C14.889 12.7417 15.0013 12.618 15.0789 12.4728C15.1566 12.3277 15.1972 12.1656 15.1972 12.001C15.1972 11.8364 15.1566 11.6743 15.0789 11.5292C15.0013 11.3841 14.889 11.2603 14.752 11.169V11.168Z" fill="white" stroke="white" stroke-linecap="round" stroke-linejoin="round"/>
</svg>
