<svg width="18" height="18" viewBox="0 0 18 18" fill="none" xmlns="http://www.w3.org/2000/svg">
<path d="M11.064 8.37599L8.66625 6.77699C8.5532 6.70156 8.42177 6.65827 8.28601 6.65174C8.15026 6.64522 8.01529 6.6757 7.89552 6.73994C7.77574 6.80418 7.67568 6.89975 7.60602 7.01645C7.53635 7.13315 7.49971 7.26658 7.5 7.40249V10.5997C7.49998 10.7355 7.53682 10.8688 7.6066 10.9852C7.67637 11.1017 7.77646 11.1971 7.89618 11.2611C8.0159 11.3252 8.15077 11.3556 8.28639 11.349C8.42201 11.3424 8.5533 11.2991 8.66625 11.2237L11.064 9.62474C11.1667 9.55625 11.2509 9.46346 11.3092 9.35461C11.3674 9.24575 11.3979 9.1242 11.3979 9.00074C11.3979 8.87728 11.3674 8.75573 11.3092 8.64688C11.2509 8.53803 11.1667 8.44523 11.064 8.37674V8.37599Z" stroke="#333333" stroke-linecap="round" stroke-linejoin="round"/>
<path d="M15.75 9C15.75 9.88642 15.5754 10.7642 15.2362 11.5831C14.897 12.4021 14.3998 13.1462 13.773 13.773C13.1462 14.3998 12.4021 14.897 11.5831 15.2362C10.7642 15.5754 9.88642 15.75 9 15.75C8.11358 15.75 7.23583 15.5754 6.41689 15.2362C5.59794 14.897 4.85382 14.3998 4.22703 13.773C3.60023 13.1462 3.10303 12.4021 2.76381 11.5831C2.42459 10.7642 2.25 9.88642 2.25 9C2.25 7.20979 2.96116 5.4929 4.22703 4.22703C5.4929 2.96116 7.20979 2.25 9 2.25C10.7902 2.25 12.5071 2.96116 13.773 4.22703C15.0388 5.4929 15.75 7.20979 15.75 9Z" stroke="#333333" stroke-linecap="round" stroke-linejoin="round"/>
</svg>
