<svg width="20" height="20" viewBox="0 0 20 20" fill="none" xmlns="http://www.w3.org/2000/svg">
<path d="M7.5 15.8333V10.8333C7.5 10.3913 7.3244 9.96738 7.01184 9.65482C6.69928 9.34226 6.27536 9.16667 5.83333 9.16667H4.16667C3.72464 9.16667 3.30072 9.34226 2.98816 9.65482C2.67559 9.96738 2.5 10.3913 2.5 10.8333V15.8333C2.5 16.2754 2.67559 16.6993 2.98816 17.0118C3.30072 17.3244 3.72464 17.5 4.16667 17.5H5.83333C6.27536 17.5 6.69928 17.3244 7.01184 17.0118C7.3244 16.6993 7.5 16.2754 7.5 15.8333ZM7.5 15.8333V7.5C7.5 7.05797 7.67559 6.63405 7.98816 6.32149C8.30072 6.00893 8.72464 5.83333 9.16667 5.83333H10.8333C11.2754 5.83333 11.6993 6.00893 12.0118 6.32149C12.3244 6.63405 12.5 7.05797 12.5 7.5V15.8333M7.5 15.8333C7.5 16.2754 7.67559 16.6993 7.98816 17.0118C8.30072 17.3244 8.72464 17.5 9.16667 17.5H10.8333C11.2754 17.5 11.6993 17.3244 12.0118 17.0118C12.3244 16.6993 12.5 16.2754 12.5 15.8333M12.5 15.8333V4.16667C12.5 3.72464 12.6756 3.30072 12.9882 2.98816C13.3007 2.67559 13.7246 2.5 14.1667 2.5H15.8333C16.2754 2.5 16.6993 2.67559 17.0118 2.98816C17.3244 3.30072 17.5 3.72464 17.5 4.16667V15.8333C17.5 16.2754 17.3244 16.6993 17.0118 17.0118C16.6993 17.3244 16.2754 17.5 15.8333 17.5H14.1667C13.7246 17.5 13.3007 17.3244 12.9882 17.0118C12.6756 16.6993 12.5 16.2754 12.5 15.8333Z" stroke="#333333" stroke-linecap="round" stroke-linejoin="round"/>
</svg>
