<svg width="13" height="12" viewBox="0 0 13 12" fill="none" xmlns="http://www.w3.org/2000/svg">
<path d="M10.8333 7.5C9.80417 7.5 8.99167 8.15 8.72083 9H3.79167C2.275 9 1.08333 7.9 1.08333 6.5V5H8.72083C8.9375 5.85 9.80417 6.5 10.8333 6.5C12.025 6.5 13 5.6 13 4.5C13 3.4 12.025 2.5 10.8333 2.5C9.80417 2.5 8.99167 3.15 8.72083 4H1.08333V1.5C1.08333 1.2 0.866667 1 0.541667 1C0.216667 1 0 1.2 0 1.5V6.5C0 8.45 1.67917 10 3.79167 10H8.72083C8.9375 10.85 9.80417 11.5 10.8333 11.5C12.025 11.5 13 10.6 13 9.5C13 8.4 12.025 7.5 10.8333 7.5ZM10.8333 3.5C11.4292 3.5 11.9167 3.95 11.9167 4.5C11.9167 5.05 11.4292 5.5 10.8333 5.5C10.2375 5.5 9.75 5.05 9.75 4.5C9.75 3.95 10.2375 3.5 10.8333 3.5ZM10.8333 10.5C10.2375 10.5 9.75 10.05 9.75 9.5C9.75 8.95 10.2375 8.5 10.8333 8.5C11.4292 8.5 11.9167 8.95 11.9167 9.5C11.9167 10.05 11.4292 10.5 10.8333 10.5Z" fill="#B7B9BB"/>
</svg>
