<svg width="30" height="30" viewBox="0 0 30 30" fill="none" xmlns="http://www.w3.org/2000/svg">
<rect width="30" height="30" rx="15" fill="white"/>
<path d="M23.354 18.354C21.7172 19.0122 19.9231 19.1748 18.1946 18.8217C16.4662 18.4686 14.8796 17.6153 13.6322 16.3678C12.3847 15.1204 11.5314 13.5338 11.1783 11.8054C10.8251 10.0769 10.9878 8.28277 11.646 6.646C9.7077 7.42673 8.10135 8.85739 7.10232 10.6927C6.10328 12.528 5.77378 14.6537 6.17031 16.7054C6.56683 18.757 7.66467 20.6069 9.27565 21.9378C10.8866 23.2687 12.9104 23.9977 15 24C16.7969 24.0001 18.5527 23.4624 20.0415 22.4562C21.5303 21.45 22.684 20.0213 23.354 18.354Z" fill="#333333" stroke="#333333" stroke-linecap="round" stroke-linejoin="round"/>
</svg>
