<svg width="30" height="30" viewBox="0 0 30 30" fill="none" xmlns="http://www.w3.org/2000/svg">
<g clip-path="url(#clip0_3_965)">
<path d="M18.6735 11.0714C18.6735 12.0186 18.2864 12.927 17.5975 13.5968C16.9086 14.2666 15.9742 14.6429 15 14.6429C14.0257 14.6429 13.0914 14.2666 12.4024 13.5968C11.7135 12.927 11.3265 12.0186 11.3265 11.0714C11.3265 10.1242 11.7135 9.21582 12.4024 8.54605C13.0914 7.87627 14.0257 7.5 15 7.5C15.9742 7.5 16.9086 7.87627 17.5975 8.54605C18.2864 9.21582 18.6735 10.1242 18.6735 11.0714V11.0714ZM15 17.3214C13.295 17.3214 11.6599 17.9799 10.4543 19.152C9.2487 20.3241 8.57141 21.9138 8.57141 23.5714H21.4286C21.4286 21.9138 20.7513 20.3241 19.5457 19.152C18.3401 17.9799 16.7049 17.3214 15 17.3214V17.3214Z" stroke="#96999C" stroke-linecap="round" stroke-linejoin="round"/>
<rect x="0.5" y="0.5" width="29" height="29" rx="14.5" stroke="#96999C" stroke-dasharray="2 2"/>
</g>
<defs>
<clipPath id="clip0_3_965">
<rect width="30" height="30" fill="white"/>
</clipPath>
</defs>
</svg>
